<svg xmlns="http://www.w3.org/2000/svg" viewBox="0 0 254.10667 86.666664" height="43.333" width="127.053"><defs><clipPath id="a"><path d="M593.941 125.918c0-36.816-29.847-66.672-66.675-66.672h-393.45c-36.82 0-66.668 29.856-66.668 66.672V415.25s112.149-19.551 263.399-18.441c142.016 1.039 263.394 18.441 263.394 18.441z"/></clipPath><linearGradient id="b" gradientTransform="rotate(-90 372.738 42.365) scale(356.006)" gradientUnits="userSpaceOnUse" x2="1"><stop offset="0" stop-color="#f79328"/><stop offset="1" stop-color="#c55c19"/></linearGradient></defs><path d="M254.101 73.96c0 7.018-5.688 12.707-12.705 12.707H12.706C5.688 86.667 0 80.977 0 73.96V12.705C0 5.688 5.689 0 12.705 0h228.691c7.017 0 12.705 5.688 12.705 12.705v61.256" fill="#231f20"/><path d="M79.055 69.74a8.89 8.89 0 0 1-8.89 8.89h-52.46a8.89 8.89 0 0 1-8.89-8.89V17.28a8.89 8.89 0 0 1 8.89-8.89h52.46a8.89 8.89 0 0 1 8.89 8.89v52.46" fill="#fff"/><g clip-path="url(#a)" transform="matrix(.13333 0 0 -.13333 0 86.667)"><path d="M593.941 125.918c0-36.816-29.847-66.672-66.675-66.672h-393.45c-36.82 0-66.668 29.856-66.668 66.672V415.25s112.149-19.551 263.399-18.441c142.016 1.039 263.394 18.441 263.394 18.441V125.918" fill="url(#b)"/></g><path d="M17.842 8.459c-4.863 0-8.82 3.957-8.82 8.821v52.46c0 4.864 3.957 8.82 8.82 8.82h52.46c4.865 0 8.822-3.956 8.822-8.82V17.28c0-4.864-3.957-8.821-8.822-8.821zm52.46 70.239h-52.46c-4.939 0-8.958-4.018-8.958-8.958V17.28c0-4.94 4.02-8.959 8.958-8.959h52.46c4.94 0 8.958 4.02 8.958 8.96V69.74c0 4.94-4.018 8.958-8.958 8.958" fill="#231f20"/><path d="M50.034 26.83C47.167 29 43.01 30.155 39.43 30.155a18.92 18.92 0 0 1-12.952-5.067c-.269-.248-.03-.588.293-.395 3.688 2.2 8.249 3.526 12.96 3.526 3.177 0 6.671-.676 9.885-2.074.485-.211.891.327.417.687" fill="#231f20" fill-rule="evenodd"/><path d="M51.227 25.434c-.367-.481-2.424-.228-3.349-.115-.28.035-.323-.216-.07-.398 1.64-1.182 4.33-.84 4.643-.445.314.4-.083 3.164-1.621 4.483-.237.204-.461.095-.357-.173.346-.887 1.12-2.87.754-3.352m-3.42-8.864v-1.148a.28.28 0 0 1 .284-.29h5.02c.16 0 .288.12.29.29l-.002.984c0 .165-.136.38-.377.724l-2.6 3.806c.964-.022 1.986.125 2.863.631.198.114.251.282.267.448v1.226c0 .168-.181.364-.37.262-1.546-.83-3.596-.92-5.304.01-.175.096-.358-.097-.358-.266v-1.165c0-.186.003-.505.187-.79l3.013-4.432h-2.624a.282.282 0 0 1-.29-.29m-18.175 7.175h-1.527a.291.291 0 0 1-.273-.265v-8.038c0-.16.133-.289.296-.289h1.422a.29.29 0 0 1 .278.27v1.049h.028c.371-1.015 1.07-1.49 2.01-1.49.956 0 1.554.475 1.982 1.49.37-1.015 1.211-1.49 2.11-1.49.642 0 1.34.272 1.768.88.484.678.385 1.658.385 2.52l-.001 5.074c0 .16-.132.289-.294.289h-1.526a.292.292 0 0 1-.275-.289v-4.261c0-.338.028-1.184-.043-1.505-.114-.542-.456-.694-.898-.694-.37 0-.755.254-.912.66-.157.406-.143 1.082-.143 1.539v4.26c0 .16-.132.29-.294.29h-1.526a.291.291 0 0 1-.274-.289l-.002-4.261c0-.897.143-2.216-.94-2.216-1.098 0-1.055 1.286-1.055 2.216l-.002 4.26a.29.29 0 0 1-.294.29m27.968-7.12c-1.127 0-1.198 1.572-1.198 2.553 0 .98-.015 3.079 1.184 3.079 1.183 0 1.24-1.692 1.24-2.724 0-.676-.029-1.488-.229-2.131-.17-.558-.513-.777-.997-.777zm-.014-1.642c2.266 0 3.493 1.996 3.493 4.533 0 2.453-1.355 4.398-3.493 4.398-2.225 0-3.437-1.996-3.437-4.482 0-2.503 1.227-4.45 3.437-4.45m6.432 8.763h-1.522a.291.291 0 0 1-.274-.289l-.002-8.04a.292.292 0 0 1 .294-.263h1.416c.133.006.243.1.272.225v1.23h.028c.427-1.1 1.026-1.625 2.081-1.625.685 0 1.355.254 1.782.947.4.643.4 1.726.4 2.504v5.058a.292.292 0 0 1-.293.253h-1.53a.29.29 0 0 1-.273-.253v-4.364c0-.88.1-2.165-.955-2.165-.371 0-.713.253-.884.642-.214.49-.242.981-.242 1.523v4.328a.296.296 0 0 1-.298.289m-18.536-.02a.31.31 0 0 1-.36.036c-.507-.432-.598-.632-.876-1.043-.838.875-1.432 1.137-2.518 1.137-1.285 0-2.285-.813-2.285-2.44 0-1.272.67-2.136 1.628-2.56.828-.373 1.986-.44 2.872-.542v-.204c0-.373.028-.813-.186-1.135-.186-.289-.543-.407-.858-.407-.582 0-1.1.306-1.227.94-.026.141-.127.28-.265.288l-1.48-.164c-.126-.029-.265-.132-.228-.328.34-1.84 1.962-2.397 3.416-2.397.742 0 1.714.203 2.3.78.742.711.67 1.66.67 2.695v2.44c0 .734.298 1.055.577 1.45.098.144.12.313-.005.417a71.34 71.34 0 0 0-1.171 1.04zm-1.54-3.819c0 .61.015 1.12-.285 1.662-.243.44-.629.711-1.058.711-.585 0-.928-.458-.928-1.135 0-1.334 1.166-1.577 2.272-1.577v.34m-18.345 3.818a.31.31 0 0 1-.36.036c-.508-.432-.599-.632-.876-1.043-.838.875-1.432 1.137-2.518 1.137-1.286 0-2.286-.813-2.286-2.44 0-1.272.672-2.136 1.629-2.56.828-.373 1.986-.44 2.872-.542v-.204c0-.373.028-.813-.186-1.135-.186-.289-.542-.407-.858-.407-.582 0-1.1.306-1.227.94-.027.141-.127.28-.265.288l-1.48-.164c-.125-.029-.265-.132-.228-.328.34-1.84 1.961-2.397 3.415-2.397.743 0 1.714.203 2.3.78.743.711.672 1.66.672 2.695v2.44c0 .734.297 1.055.576 1.45.098.144.12.313-.005.417-.312.268-.866.762-1.17 1.04zm-1.54-3.819c0 .61.015 1.12-.285 1.662-.243.44-.629.711-1.057.711-.586 0-.929-.458-.929-1.135 0-1.334 1.167-1.577 2.272-1.577v.34" fill="#231f20" fill-rule="evenodd"/><path d="M36.69 53.592c0 6.857-5.559 12.417-12.415 12.417-6.857 0-12.416-5.56-12.416-12.417 0-6.856 5.56-12.414 12.416-12.414 6.856 0 12.415 5.558 12.415 12.414" fill="#1f2b6a"/><path d="M24.969 48.852H21.99V59.89s-.131.217-.394-.138c-.13-.176-3.635-5.382-3.635-5.382s-.57-.569-1.402-.35c-.832.219-1.14.787-.744 1.49.393.7 3.065 7.05 6.526 8.803 2.46 1.244 5.387.787 7.052 0 1.473-.697 3.776-2.41 3.95-4.686a29.252 29.252 0 0 0-.003-4.293h-1.55v2.759h-.996v-4.03h-1.752v3.294h-1.045v-4.3h-1.972v4.082h-.957l-.1-8.288m-5.738.001h-2.496v1.533h2.497v-1.533m11.147 0H27.88v1.533h2.497v-1.533m-5.627-5.519h-2.585v2.891h2.584v-2.89m-4.817 4.291l.92-.92-1.703-1.751-1.03.92 1.813 1.75m7.365-.272l-.782-1.058 1.84-1.478.754 1.058-1.812 1.478M45.208 53.1h-.204c-1.97 0-3.142.468-3.142 2.063 0 1 .577 1.68 1.469 1.68 1.375 0 1.877-1.17 1.877-3.125zm-4.536-4.954c.65-.34 1.562-.807 3.03-.807 2.975 0 3.663 1.657 3.663 4.4v4.784c0 .788-.063 1.51-.008 1.935h-2.082c-.046-.5.007-.955.007-1.488h-.037c-.576.894-1.301 1.66-2.677 1.66-1.487 0-2.862-1.17-2.862-3.212 0-2.976 2.12-3.721 5.037-3.721h.465v-.404c0-1.085-.465-2.084-1.784-2.084-1.153 0-2.176.638-2.621 1.063l-.13-2.126" fill="#fff"/><path d="M45.004 53.17c-2.155 0-3.073.596-3.073 1.993 0 .979.55 1.612 1.4 1.612 1.234 0 1.809-.972 1.809-3.057v-.549zm-1.674 3.74c-.92 0-1.537-.703-1.537-1.748 0-1.494.96-2.13 3.21-2.13h.204c.038 0 .069.03.069.068v.617c0 2.18-.619 3.193-1.946 3.193zm1.412-5.145c-3.436 0-4.968 1.126-4.968 3.652 0 2.063 1.405 3.143 2.793 3.143 1.38 0 2.075-.782 2.62-1.627a.068.068 0 0 1 .057-.031h.037c.038 0 .07.03.07.067 0 .191-.008.374-.015.548-.011.297-.021.577.002.873h1.942c-.025-.267-.014-.623-.002-1.029.008-.268.017-.546.017-.839V51.74c0-2.602-.611-4.334-3.593-4.334-1.437 0-2.35.461-2.96.78l.12 1.94c.473-.405 1.443-.985 2.561-.985 1.178 0 1.853.784 1.853 2.152v.404a.07.07 0 0 1-.069.069zm-2.175 6.932c-1.456 0-2.93-1.127-2.93-3.28 0-3.36 2.728-3.789 5.105-3.789h.397v-.336c0-.606-.167-2.016-1.716-2.016-1.167 0-2.167.658-2.573 1.044a.068.068 0 1 1-.116-.045l-.13-2.127a.07.07 0 0 1 .036-.064c.621-.325 1.56-.816 3.062-.816 3.096 0 3.73 1.787 3.73 4.47v4.784c0 .295-.008.573-.017.843-.013.441-.025.821.01 1.083a.069.069 0 0 1-.068.078h-2.083a.068.068 0 0 1-.068-.062 7.04 7.04 0 0 1-.006-.952l.012-.369c-.533.79-1.276 1.554-2.645 1.554M53.63 56.42c1.281 0 2.001-1.15 2.001-3.34 0-2.53-.626-3.807-1.965-3.807-1.358 0-1.822 1.542-1.822 3.605 0 2.127.52 3.541 1.785 3.541zm-4.09-7.04c0-.788-.007-1.389-.007-1.853l2.018.005c.019.343.007.385.007 1.128h.056c.372-.935 1.196-1.321 2.683-1.321 2.38 0 3.502 2.593 3.502 5.634 0 3.573-1.382 5.381-3.445 5.381-1.376 0-2.138-.207-2.473-1.057h-.037v5.206H49.54V49.379" fill="#fff"/><path d="M53.666 49.341c-1.163 0-1.753 1.19-1.753 3.537 0 1.585.297 3.473 1.716 3.473 1.247 0 1.934-1.162 1.934-3.271 0-2.516-.62-3.739-1.897-3.739zm-.037 7.147c-1.212 0-1.854-1.248-1.854-3.61 0-2.438.636-3.674 1.891-3.674 1.37 0 2.035 1.267 2.035 3.876 0 2.197-.736 3.408-2.072 3.408zm-4.02 5.947h2.166v-5.138a.07.07 0 0 1 .07-.07h.036c.028 0 .054.02.064.045.295.749.925 1.014 2.41 1.014 2.145 0 3.376-1.935 3.376-5.313 0-2.568-.9-5.567-3.434-5.567-1.48 0-2.263.383-2.62 1.28a.068.068 0 0 1-.063.043h-.056a.07.07 0 0 1-.068-.07l.002-.556c.001-.224.003-.323-.006-.502l-1.884-.006c0 .185 0 .39.002.618.002.335.004.72.004 1.166zm2.235.136H49.54a.069.069 0 0 1-.068-.068V49.379c0-.444-.002-.831-.004-1.165l-.003-.687c0-.018.007-.036.02-.05a.075.075 0 0 1 .05-.019l2.018.006c.036 0 .066.028.068.065.011.228.011.323.01.575l-.003.357c.41-.833 1.222-1.192 2.67-1.192 2.17 0 3.57 2.239 3.57 5.704 0 3.464-1.28 5.45-3.513 5.45-1.226 0-2.038-.152-2.44-.896v4.976a.07.07 0 0 1-.07.068m17.175-7.049c.388.165 1.375.84 2.498.84.872 0 1.55-.228 1.55-1.054 0-.412-.193-.804-1.065-1.342l-1.4-.893c-1.007-.64-1.699-1.105-1.699-2.583 0-1.706 1.336-3.151 3.447-3.151 1.279 0 2.266.35 2.498.433l-.135 1.982c-.6-.247-1.24-.475-2.111-.475-.968 0-1.375.393-1.375 1.032 0 .579.291.803.988 1.278l1.656.791c1.303.763 1.657 1.824 1.657 2.784 0 1.962-1.412 3.276-3.581 3.276-1.24 0-2.54-.447-3.044-.654l.116-2.264" fill="#fff"/><path d="M68.975 57.741c.35.14 1.67.631 2.973.631 2.133 0 3.512-1.258 3.512-3.208 0-1.177-.546-2.094-1.624-2.725l-1.65-.788c-.715-.487-1.027-.726-1.027-1.34 0-.501.25-1.1 1.444-1.1.855 0 1.483.214 2.049.444l.125-1.836a7.483 7.483 0 0 0-2.426-.413c-1.958 0-3.378 1.297-3.378 3.084 0 1.466.699 1.91 1.668 2.524l1.399.895c.778.479 1.096.885 1.096 1.4 0 .755-.53 1.12-1.618 1.12-.91 0-1.73-.432-2.22-.691-.08-.041-.152-.08-.215-.11zm2.973.768c-1.394 0-2.802-.548-3.07-.658a.07.07 0 0 1-.042-.067l.116-2.265a.068.068 0 0 1 .032-.054.07.07 0 0 1 .063-.006c.082.036.19.092.314.158.48.253 1.28.676 2.157.676 1.01 0 1.48-.312 1.48-.985 0-.388-.175-.755-1.031-1.283l-1.4-.895c-.968-.614-1.731-1.1-1.731-2.64 0-1.866 1.478-3.22 3.515-3.22a7.61 7.61 0 0 1 2.521.437.07.07 0 0 1 .046.069l-.136 1.983a.068.068 0 0 1-.032.054.07.07 0 0 1-.063.005c-.575-.238-1.21-.47-2.084-.47-.879 0-1.306.315-1.306.963 0 .546.276.757.958 1.221l1.646.786c1.127.66 1.696 1.617 1.696 2.846 0 2-1.466 3.345-3.65 3.345m-8.414-2.089c1.283 0 2.003-1.15 2.003-3.34 0-2.53-.627-3.807-1.966-3.807-1.356 0-1.822 1.542-1.822 3.605 0 2.127.52 3.541 1.785 3.541zm-4.09-7.04c0-.788-.006-1.389-.006-1.853l2.019.005c.018.343.007.385.007 1.128h.055c.373-.935 1.198-1.321 2.684-1.321 2.38 0 3.502 2.593 3.502 5.634 0 3.573-1.383 5.381-3.446 5.381-1.375 0-2.138-.207-2.472-1.057h-.038v5.206h-2.305V49.379" fill="#fff"/><path d="M63.57 49.341c-1.163 0-1.752 1.19-1.752 3.537 0 1.585.297 3.473 1.715 3.473 1.248 0 1.935-1.162 1.935-3.271 0-2.516-.621-3.739-1.898-3.739zm-.037 7.147c-1.212 0-1.853-1.248-1.853-3.61 0-2.438.636-3.674 1.89-3.674 1.37 0 2.035 1.267 2.035 3.876 0 2.197-.736 3.408-2.072 3.408zm-4.02 5.947h2.167v-5.138a.07.07 0 0 1 .068-.07h.038a.07.07 0 0 1 .063.045c.295.749.926 1.014 2.41 1.014 2.145 0 3.376-1.935 3.376-5.313 0-2.568-.899-5.567-3.433-5.567-1.48 0-2.263.383-2.62 1.28a.067.067 0 0 1-.064.043h-.055a.069.069 0 0 1-.068-.07l.001-.556a7.777 7.777 0 0 0-.005-.502l-1.884-.006.001.618c.002.335.005.72.005 1.166zm2.235.136h-2.305a.068.068 0 0 1-.068-.068V49.379c0-.444-.002-.831-.004-1.165l-.002-.687c0-.018.007-.036.02-.05a.071.071 0 0 1 .048-.019l2.019.006c.036 0 .066.028.068.065.012.228.012.323.01.575l-.002.357c.41-.833 1.222-1.192 2.67-1.192 2.169 0 3.57 2.239 3.57 5.704 0 3.464-1.28 5.45-3.514 5.45-1.226 0-2.037-.152-2.44-.896v4.976a.07.07 0 0 1-.07.068" fill="#fff"/><path d="M179.801 69.6c-7.873 5.809-19.286 8.9-29.114 8.9-13.774 0-26.177-5.091-35.565-13.566-.736-.666-.078-1.576.807-1.06 10.127 5.893 22.651 9.441 35.584 9.441 8.727 0 18.318-1.811 27.143-5.552 1.33-.565 2.447.877 1.145 1.838" fill="#f68c14" fill-rule="evenodd"/><path d="M183.077 65.86c-1.008-1.29-6.657-.612-9.194-.307-.77.093-.888-.579-.195-1.066 4.507-3.164 11.89-2.251 12.748-1.191.865 1.069-.227 8.472-4.45 12.005-.649.544-1.267.254-.98-.465.951-2.371 3.078-7.687 2.071-8.976" fill="#f68c14" fill-rule="evenodd"/><path d="M174.063 42.128v-3.076a.76.76 0 0 1 .778-.779l13.784-.002c.442 0 .795.322.795.778v2.638c-.003.443-.376 1.02-1.039 1.935l-7.138 10.196c2.649-.063 5.453.335 7.862 1.687.542.305.688.758.73 1.2v3.282c0 .453-.494.977-1.014.705-4.242-2.223-9.873-2.468-14.565.024-.479.257-.98-.259-.98-.71v-3.122c0-.499.01-1.352.512-2.112l8.273-11.868-7.202-.001c-.442 0-.794-.316-.796-.775M123.78 61.337h-4.193a.788.788 0 0 1-.75-.708l.003-21.522c0-.433.362-.776.808-.776l3.905-.001c.41.021.738.33.764.722v2.81h.078c1.019-2.717 2.936-3.986 5.519-3.986 2.622 0 4.267 1.269 5.442 3.986 1.017-2.717 3.327-3.986 5.793-3.986 1.763 0 3.68.726 4.854 2.356 1.33 1.81 1.057 4.438 1.057 6.749l-.003 13.582c0 .43-.362.774-.808.774h-4.189a.788.788 0 0 1-.755-.774V49.155c0-.908.079-3.172-.117-4.032-.313-1.45-1.252-1.857-2.465-1.857-1.019 0-2.076.68-2.506 1.766-.43 1.089-.392 2.898-.392 4.123v11.408c0 .43-.361.774-.808.774h-4.189a.788.788 0 0 1-.753-.774l-.004-11.408c0-2.401.392-5.935-2.584-5.935-3.014 0-2.896 3.443-2.896 5.935l-.002 11.408c0 .43-.362.774-.809.774m77.545-19.067c-3.092 0-3.288 4.212-3.288 6.84 0 2.626-.038 8.24 3.25 8.24 3.249 0 3.406-4.527 3.406-7.29 0-1.813-.078-3.985-.626-5.707-.471-1.494-1.411-2.084-2.742-2.084zm-.038-4.394c6.225 0 9.59 5.344 9.59 12.138 0 6.568-3.717 11.778-9.59 11.778-6.107 0-9.434-5.347-9.434-12.003 0-6.704 3.366-11.913 9.434-11.913m17.663 23.461h-4.18a.787.787 0 0 1-.751-.774l-.007-21.53c.036-.394.383-.702.805-.702l3.891-.001a.798.798 0 0 1 .745.602v3.292h.079c1.173-2.944 2.819-4.348 5.715-4.348 1.878 0 3.718.68 4.892 2.538 1.097 1.721 1.097 4.618 1.097 6.702v13.543c-.047.383-.39.678-.803.678h-4.204a.796.796 0 0 1-.749-.678V48.974c0-2.355.276-5.797-2.621-5.797-1.019 0-1.959.678-2.427 1.72-.587 1.312-.667 2.626-.667 4.077v11.589c-.006.43-.369.774-.816.774m-51.646-.055c-.279.25-.679.266-.992.1-1.394-1.16-1.643-1.693-2.404-2.795-2.303 2.345-3.934 3.048-6.915 3.048-3.53 0-6.277-2.18-6.277-6.538 0-3.402 1.844-5.718 4.473-6.852 2.276-.999 5.453-1.18 7.887-1.454v-.544c0-.999.076-2.178-.511-3.04-.51-.773-1.49-1.09-2.355-1.09-1.598 0-3.02.819-3.37 2.519-.074.377-.348.75-.728.77l-4.066-.44c-.344-.077-.724-.353-.625-.877.935-4.93 5.387-6.42 9.379-6.42 2.038 0 4.706.544 6.314 2.088 2.042 1.907 1.844 4.449 1.844 7.217v6.534c0 1.963.818 2.827 1.583 3.888.268.38.328.833-.013 1.112-.856.716-2.379 2.04-3.216 2.785zm-4.228-10.224c0 1.635.038 2.995-.786 4.45-.668 1.18-1.726 1.906-2.904 1.906-1.608 0-2.549-1.227-2.549-3.042 0-3.573 3.203-4.22 6.239-4.22v.906m-50.748 10.224c-.278.25-.679.266-.99.1-1.394-1.16-1.644-1.693-2.405-2.795-2.302 2.345-3.933 3.048-6.913 3.048-3.532 0-6.277-2.18-6.277-6.538 0-3.402 1.844-5.718 4.472-6.852 2.275-.999 5.453-1.18 7.885-1.454v-.544c0-.999.079-2.178-.509-3.04-.511-.773-1.492-1.09-2.355-1.09-1.599 0-3.022.819-3.37 2.519-.073.377-.348.75-.729.77l-4.064-.44c-.344-.077-.726-.353-.626-.877.934-4.93 5.387-6.42 9.377-6.42 2.04 0 4.708.544 6.318 2.088 2.039 1.907 1.842 4.449 1.842 7.217v6.534c0 1.963.817 2.827 1.583 3.888.268.38.328.833-.014 1.112-.856.716-2.378 2.04-3.216 2.785zm-4.228-10.224c0 1.635.039 2.995-.785 4.45-.666 1.18-1.725 1.906-2.903 1.906-1.608 0-2.55-1.227-2.55-3.042 0-3.573 3.204-4.22 6.238-4.22v.906" fill="#fff" fill-rule="evenodd"/><path d="M99.323 23.05h4.312l-2.12-5.933h-.036zm1.266-7.466h1.87l4.971 12.722h-1.87l-1.39-3.831h-5.381l-1.425 3.831h-1.747l4.972-12.722m10.654 12.722h-1.621l-3.421-9.212h1.692l2.584 7.68h.036l2.512-7.68h1.585l-3.367 9.212m9.568-4.757c-.588.428-1.728.445-2.744.623-.998.179-1.853.535-1.853 1.658 0 .998.855 1.354 1.782 1.354 1.996 0 2.815-1.248 2.815-2.085zm2.46 4.721c-.268.16-.607.25-1.088.25-.784 0-1.282-.428-1.282-1.426-.838.98-1.96 1.426-3.243 1.426-1.676 0-3.048-.749-3.048-2.584 0-2.084 1.55-2.53 3.119-2.832 1.675-.322 3.1-.214 3.1-1.355 0-1.319-1.087-1.532-2.049-1.532-1.283 0-2.227.392-2.299 1.746h-1.514c.09-2.28 1.853-3.083 3.902-3.083 1.657 0 3.456.375 3.456 2.53v4.74c0 .713 0 1.034.482 1.034.125 0 .268-.018.463-.09v1.176m1.05-9.176h1.515v9.212h-1.515zm1.515-1.657h-1.515v-1.853h1.515v1.853m2.085-1.853h1.514v12.722h-1.515V15.584m9.122 7.965c-.586.428-1.728.445-2.742.623-.998.179-1.854.535-1.854 1.658 0 .998.856 1.354 1.782 1.354 1.996 0 2.814-1.248 2.814-2.085zm2.46 4.721c-.268.16-.606.25-1.086.25-.784 0-1.283-.428-1.283-1.426-.837.98-1.961 1.426-3.244 1.426-1.674 0-3.047-.749-3.047-2.584 0-2.084 1.55-2.53 3.119-2.832 1.675-.322 3.1-.214 3.1-1.355 0-1.319-1.088-1.532-2.05-1.532-1.282 0-2.226.392-2.297 1.746h-1.515c.088-2.28 1.853-3.083 3.902-3.083 1.656 0 3.456.375 3.456 2.53v4.74c0 .713 0 1.034.481 1.034.126 0 .268-.018.464-.09v1.176m5.292-8.053c-2.032 0-2.816 1.746-2.816 3.475 0 1.816.82 3.492 2.904 3.492 2.067 0 2.762-1.765 2.762-3.564 0-1.729-.891-3.403-2.85-3.403zm-4.277-4.633h1.513v4.757h.038c.498-1.016 1.674-1.46 2.94-1.46 2.833 0 4.241 2.244 4.241 4.846 0 2.601-1.39 4.793-4.207 4.793-.944 0-2.297-.356-2.974-1.443h-.038v1.23h-1.513V15.583m9.889.001h1.514v12.722h-1.514V15.584m9.816 7.234c-.07-1.443-1.157-2.601-2.653-2.601-1.587 0-2.532 1.193-2.639 2.601zm1.463 2.566c-.41 2.031-1.872 3.136-3.939 3.136-2.94 0-4.329-2.03-4.418-4.847 0-2.762 1.816-4.793 4.329-4.793 3.261 0 4.26 3.047 4.17 5.274h-6.897c-.053 1.604.856 3.03 2.87 3.03 1.246 0 2.12-.606 2.388-1.8h1.497m12.364-1.835c-.588.428-1.73.445-2.744.623-.999.179-1.853.535-1.853 1.658 0 .998.854 1.354 1.782 1.354 1.995 0 2.815-1.248 2.815-2.085zm2.459 4.721c-.267.16-.606.25-1.087.25-.783 0-1.283-.428-1.283-1.426-.837.98-1.96 1.426-3.242 1.426-1.675 0-3.047-.749-3.047-2.584 0-2.084 1.55-2.53 3.117-2.832 1.675-.322 3.102-.214 3.102-1.355 0-1.319-1.088-1.532-2.05-1.532-1.282 0-2.228.392-2.3 1.746h-1.513c.09-2.28 1.852-3.083 3.901-3.083 1.658 0 3.458.375 3.458 2.53v4.74c0 .713 0 1.034.48 1.034.125 0 .268-.018.464-.09v1.176m3.51-9.176h1.835v1.336h-1.835v5.72c0 .695.195.82 1.14.82h.695v1.336h-1.157c-1.568 0-2.192-.32-2.192-2.013V20.43h-1.57v-1.336h1.57v-2.762h1.514v2.762" fill="#fff"/></svg>