<?xml version="1.0" encoding="UTF-8" standalone="no"?>
<svg
   xmlns:dc="http://purl.org/dc/elements/1.1/"
   xmlns:cc="http://creativecommons.org/ns#"
   xmlns:rdf="http://www.w3.org/1999/02/22-rdf-syntax-ns#"
   xmlns:svg="http://www.w3.org/2000/svg"
   xmlns="http://www.w3.org/2000/svg"
   viewBox="0 0 254.10667 86.666664"
   height="43.333332"
   width="127.053335"
   xml:space="preserve"
   id="svg2"
   version="1.1"><metadata
     id="metadata8"><rdf:RDF><cc:Work
         rdf:about=""><dc:format>image/svg+xml</dc:format><dc:type
           rdf:resource="http://purl.org/dc/dcmitype/StillImage" /></cc:Work></rdf:RDF></metadata><defs
     id="defs6"><clipPath
       id="clipPath24"
       clipPathUnits="userSpaceOnUse"><path
         id="path22"
         d="m 593.941,125.918 c 0,-36.8164 -29.847,-66.6719 -66.675,-66.6719 h -393.45 c -36.8199,0 -66.6676,29.8555 -66.6676,66.6719 V 415.25 c 0,0 112.1486,-19.551 263.3986,-18.441 142.016,1.039 263.394,18.441 263.394,18.441 z" /></clipPath><linearGradient
       id="linearGradient30"
       spreadMethod="pad"
       gradientTransform="matrix(-1.56e-5,-356.006,-356.006,1.56e-5,330.542,415.249)"
       gradientUnits="userSpaceOnUse"
       y2="0"
       x2="1"
       y1="0"
       x1="0"><stop
         id="stop26"
         offset="0"
         style="stop-opacity:1;stop-color:#f79328" /><stop
         id="stop28"
         offset="1"
         style="stop-opacity:1;stop-color:#c55c19" /></linearGradient></defs><g
     transform="matrix(1.3333333,0,0,-1.3333333,0,86.666667)"
     id="g10"><g
       transform="scale(0.1)"
       id="g12"><path
         id="path14"
         style="fill:#231f20;fill-opacity:1;fill-rule:nonzero;stroke:none"
         d="M 1905.76,95.293 C 1905.76,42.668 1863.1,0 1810.47,0 H 95.2891 C 42.6641,0 0,42.668 0,95.293 V 554.711 C 0,607.34 42.6641,650 95.2891,650 H 1810.47 c 52.63,0 95.29,-42.66 95.29,-95.289 V 95.293" /><path
         id="path16"
         style="fill:#ffffff;fill-opacity:1;fill-rule:nonzero;stroke:none"
         d="m 592.91,126.953 c 0,-36.8241 -29.847,-66.6717 -66.672,-66.6717 H 132.789 c -36.8202,0 -66.6718,29.8476 -66.6718,66.6717 v 393.445 c 0,36.825 29.8516,66.672 66.6718,66.672 h 393.449 c 36.825,0 66.672,-29.847 66.672,-66.672 V 126.953" /><g
         id="g18"><g
           clip-path="url(#clipPath24)"
           id="g20"><path
             id="path32"
             style="fill:url(#linearGradient30);fill-opacity:1;fill-rule:nonzero;stroke:none"
             d="m 593.941,125.918 c 0,-36.8164 -29.847,-66.6719 -66.675,-66.6719 h -393.45 c -36.8199,0 -66.6676,29.8555 -66.6676,66.6719 V 415.25 c 0,0 112.1486,-19.551 263.3986,-18.441 142.016,1.039 263.394,18.441 263.394,18.441 V 125.918" /></g></g><path
         id="path34"
         style="fill:#231f20;fill-opacity:1;fill-rule:nonzero;stroke:none"
         d="m 133.816,586.559 c -36.4762,0 -66.1558,-29.68 -66.1558,-66.161 V 126.953 c 0,-36.4842 29.6796,-66.16 66.1558,-66.16 h 393.45 c 36.484,0 66.164,29.6758 66.164,66.16 v 393.445 c 0,36.481 -29.68,66.161 -66.164,66.161 z M 527.266,59.7656 h -393.45 c -37.0426,0 -67.1832,30.1367 -67.1832,67.1874 v 393.445 c 0,37.047 30.1406,67.192 67.1832,67.192 h 393.45 c 37.05,0 67.187,-30.145 67.187,-67.192 V 126.953 c 0,-37.0507 -30.137,-67.1874 -67.187,-67.1874" /><path
         id="path36"
         style="fill:#231f20;fill-opacity:1;fill-rule:evenodd;stroke:none"
         d="m 375.254,448.77 c -21.504,-16.27 -52.68,-24.926 -79.524,-24.926 -37.625,0 -71.5,14.261 -97.14,38.004 -2.012,1.859 -0.223,4.406 2.199,2.961 27.664,-16.504 61.867,-26.446 97.199,-26.446 23.832,0 50.035,5.075 74.141,15.559 3.633,1.582 6.684,-2.457 3.125,-5.152" /><path
         id="path38"
         style="fill:#231f20;fill-opacity:1;fill-rule:evenodd;stroke:none"
         d="m 384.199,459.242 c -2.75,3.613 -18.179,1.715 -25.113,0.863 -2.098,-0.257 -2.422,1.625 -0.531,2.985 12.308,8.867 32.48,6.305 34.824,3.34 2.359,-2.996 -0.621,-23.731 -12.156,-33.625 -1.774,-1.528 -3.457,-0.711 -2.676,1.3 2.598,6.649 8.406,21.532 5.652,25.137" /><path
         id="path40"
         style="fill:#231f20;fill-opacity:1;fill-rule:evenodd;stroke:none"
         d="m 358.551,525.719 v 8.613 c 0.004,1.309 0.965,2.184 2.129,2.184 h 37.648 c 1.203,0 2.168,-0.903 2.176,-2.176 l -0.008,-7.387 c -0.008,-1.238 -1.023,-2.855 -2.828,-5.426 L 378.16,492.98 c 7.238,0.168 14.903,-0.937 21.481,-4.734 1.48,-0.851 1.879,-2.117 1.996,-3.359 v -9.196 c 0,-1.261 -1.356,-2.726 -2.774,-1.964 -11.59,6.222 -26.968,6.902 -39.781,-0.075 -1.312,-0.718 -2.68,0.727 -2.68,1.993 v 8.742 c 0,1.394 0.024,3.789 1.403,5.918 l 22.593,33.242 h -19.675 c -1.203,0 -2.168,0.879 -2.172,2.172" /><path
         id="path42"
         style="fill:#231f20;fill-opacity:1;fill-rule:evenodd;stroke:none"
         d="m 222.234,471.914 h -11.453 c -1.09,0.074 -1.965,0.914 -2.051,1.988 l 0.008,60.282 c 0,1.207 0.992,2.168 2.215,2.168 l 10.664,0.003 c 1.117,-0.054 2.016,-0.925 2.082,-2.023 v -7.871 h 0.215 c 2.781,7.609 8.02,11.168 15.078,11.168 7.164,0 11.653,-3.559 14.86,-11.168 2.781,7.609 9.086,11.168 15.828,11.168 4.812,0 10.047,-2.031 13.254,-6.598 3.636,-5.078 2.89,-12.433 2.89,-18.902 l -0.008,-38.047 c 0,-1.199 -0.992,-2.168 -2.207,-2.168 h -11.441 c -1.152,0.078 -2.063,1.012 -2.063,2.164 v 31.961 c 0,2.535 0.211,8.879 -0.32,11.289 -0.855,4.059 -3.422,5.199 -6.734,5.199 -2.781,0 -5.668,-1.902 -6.844,-4.945 -1.18,-3.047 -1.07,-8.117 -1.07,-11.543 v -31.957 c 0,-1.199 -0.992,-2.168 -2.207,-2.168 h -11.442 c -1.152,0.078 -2.058,1.012 -2.058,2.164 l -0.012,31.961 c 0,6.727 1.07,16.617 -7.055,16.617 -8.23,0 -7.914,-9.644 -7.914,-16.617 l -0.008,-31.957 c 0.008,-1.199 -0.984,-2.168 -2.207,-2.168" /><path
         id="path44"
         style="fill:#231f20;fill-opacity:1;fill-rule:evenodd;stroke:none"
         d="m 431.992,525.316 c -8.453,0 -8.984,-11.793 -8.984,-19.148 0,-7.359 -0.11,-23.094 8.879,-23.094 8.871,0 9.301,12.688 9.301,20.426 0,5.074 -0.215,11.164 -1.715,15.988 -1.282,4.184 -3.848,5.828 -7.481,5.828 z m -0.105,12.313 c 16.996,0 26.195,-14.973 26.195,-34 0,-18.395 -10.16,-32.984 -26.195,-32.984 -16.684,0 -25.774,14.968 -25.774,33.617 0,18.773 9.2,33.367 25.774,33.367" /><path
         id="path46"
         style="fill:#231f20;fill-opacity:1;fill-rule:evenodd;stroke:none"
         d="m 480.129,471.914 h -11.414 c -1.149,0.078 -2.055,1.012 -2.055,2.164 l -0.019,60.309 c 0.097,1.101 1.047,1.965 2.203,1.965 l 10.625,0.003 c 0.996,-0.05 1.82,-0.75 2.035,-1.687 v -9.223 h 0.215 c 3.203,8.246 7.695,12.184 15.609,12.184 5.133,0 10.156,-1.906 13.363,-7.106 2.997,-4.82 2.997,-12.941 2.997,-18.777 v -37.933 c -0.129,-1.071 -1.067,-1.899 -2.196,-1.899 h -11.48 c -1.067,0.066 -1.914,0.867 -2.043,1.899 v 32.73 c 0,6.598 0.746,16.238 -7.164,16.238 -2.782,0 -5.344,-1.902 -6.629,-4.816 -1.602,-3.684 -1.817,-7.36 -1.817,-11.422 v -32.461 c -0.023,-1.199 -1.011,-2.168 -2.23,-2.168" /><path
         id="path48"
         style="fill:#231f20;fill-opacity:1;fill-rule:evenodd;stroke:none"
         d="m 341.109,472.066 c -0.757,-0.699 -1.851,-0.742 -2.707,-0.273 -3.8,3.242 -4.48,4.738 -6.562,7.824 -6.289,-6.566 -10.742,-8.531 -18.887,-8.531 -9.64,0 -17.14,6.098 -17.14,18.305 0,9.535 5.031,16.015 12.21,19.195 6.215,2.797 14.899,3.305 21.54,4.066 v 1.528 c 0,2.797 0.21,6.101 -1.395,8.515 -1.391,2.164 -4.07,3.051 -6.43,3.051 -4.367,0 -8.254,-2.293 -9.203,-7.051 -0.199,-1.058 -0.953,-2.101 -1.988,-2.156 l -11.106,1.231 c -0.941,0.214 -1.98,0.984 -1.707,2.457 2.547,13.804 14.715,17.98 25.618,17.98 5.57,0 12.855,-1.523 17.25,-5.848 5.57,-5.339 5.035,-12.457 5.035,-20.214 v -18.297 c 0,-5.508 2.23,-7.918 4.324,-10.887 0.73,-1.07 0.894,-2.34 -0.039,-3.121 -2.34,-2.008 -6.492,-5.715 -8.785,-7.797 z m -11.546,28.637 c 0,-4.574 0.105,-8.394 -2.141,-12.461 -1.824,-3.304 -4.719,-5.336 -7.934,-5.336 -4.39,0 -6.965,3.434 -6.965,8.516 0,10.004 8.75,11.824 17.04,11.824 v -2.543" /><path
         id="path50"
         style="fill:#231f20;fill-opacity:1;fill-rule:evenodd;stroke:none"
         d="m 191.98,472.066 c -0.757,-0.699 -1.851,-0.742 -2.703,-0.273 -3.808,3.242 -4.492,4.738 -6.566,7.824 -6.289,-6.566 -10.742,-8.531 -18.887,-8.531 -9.644,0 -17.144,6.098 -17.144,18.305 0,9.535 5.035,16.015 12.215,19.195 6.21,2.797 14.894,3.305 21.539,4.066 v 1.528 c 0,2.797 0.211,6.101 -1.391,8.515 -1.398,2.164 -4.07,3.051 -6.438,3.051 -4.363,0 -8.25,-2.293 -9.203,-7.051 -0.199,-1.058 -0.953,-2.101 -1.988,-2.156 l -11.101,1.231 c -0.938,0.214 -1.985,0.984 -1.708,2.457 2.547,13.804 14.711,17.98 25.614,17.98 5.57,0 12.855,-1.523 17.25,-5.848 5.57,-5.339 5.039,-12.457 5.039,-20.214 v -18.297 c 0,-5.508 2.226,-7.918 4.32,-10.887 0.735,-1.07 0.895,-2.34 -0.039,-3.121 -2.336,-2.008 -6.492,-5.715 -8.781,-7.797 z m -11.546,28.637 c 0,-4.574 0.109,-8.394 -2.145,-12.461 -1.82,-3.304 -4.715,-5.336 -7.93,-5.336 -4.39,0 -6.961,3.434 -6.961,8.516 0,10.004 8.75,11.824 17.036,11.824 v -2.543" /><path
         id="path52"
         style="fill:#1f2b6a;fill-opacity:1;fill-rule:nonzero;stroke:none"
         d="m 275.176,248.059 c 0,-51.426 -41.692,-93.125 -93.113,-93.125 -51.426,0 -93.1177,41.699 -93.1177,93.125 0,51.421 41.6917,93.109 93.1177,93.109 51.421,0 93.113,-41.688 93.113,-93.109" /><path
         id="path54"
         style="fill:#ffffff;fill-opacity:1;fill-rule:nonzero;stroke:none"
         d="m 187.266,283.613 h -22.34 V 200.82 c 0,0 -0.985,-1.632 -2.957,1.035 -0.973,1.321 -27.262,40.364 -27.262,40.364 0,0 -4.273,4.265 -10.512,2.625 -6.246,-1.641 -8.547,-5.906 -5.586,-11.172 2.954,-5.254 22.993,-52.879 48.946,-66.027 18.453,-9.332 40.406,-5.899 52.89,0 11.047,5.226 28.321,18.07 29.633,35.148 1.313,17.09 -0.027,32.195 -0.027,32.195 h -11.629 v -20.691 h -7.465 v 30.223 h -13.144 v -24.707 h -7.836 v 32.257 h -14.786 v -30.617 h -7.183 l -0.742,62.16" /><path
         id="path56"
         style="fill:#ffffff;fill-opacity:1;fill-rule:nonzero;stroke:none"
         d="m 144.23,283.613 h -18.722 v -11.504 h 18.722 v 11.504" /><path
         id="path58"
         style="fill:#ffffff;fill-opacity:1;fill-rule:nonzero;stroke:none"
         d="m 227.832,283.613 h -18.727 v -11.504 h 18.727 v 11.504" /><path
         id="path60"
         style="fill:#ffffff;fill-opacity:1;fill-rule:nonzero;stroke:none"
         d="m 185.621,325 h -19.383 v -21.68 h 19.383 V 325" /><path
         id="path62"
         style="fill:#ffffff;fill-opacity:1;fill-rule:nonzero;stroke:none"
         d="m 149.488,292.813 6.899,6.894 -12.77,13.141 -7.719,-6.903 13.59,-13.132" /><path
         id="path64"
         style="fill:#ffffff;fill-opacity:1;fill-rule:nonzero;stroke:none"
         d="m 204.73,294.863 -5.867,7.93 13.797,11.086 5.66,-7.934 -13.59,-11.082" /><path
         id="path66"
         style="fill:#ffffff;fill-opacity:1;fill-rule:nonzero;stroke:none"
         d="m 339.063,251.746 h -1.536 c -14.777,0 -23.562,-3.504 -23.562,-15.469 0,-7.5 4.324,-12.593 11.015,-12.593 10.317,0 14.083,8.765 14.083,23.433 z m -34.02,37.16 c 4.879,2.547 11.711,6.055 22.727,6.055 22.304,0 27.464,-12.434 27.464,-33.008 v -35.879 c 0,-5.906 -0.472,-11.328 -0.054,-14.511 h -15.614 c -0.351,3.757 0.051,7.167 0.051,11.164 h -0.277 c -4.32,-6.704 -9.762,-12.446 -20.078,-12.446 -11.153,0 -21.469,8.774 -21.469,24.082 0,22.325 15.895,27.91 37.781,27.91 h 3.489 v 3.032 c 0,8.133 -3.489,15.625 -13.383,15.625 -8.649,0 -16.317,-4.785 -19.66,-7.969 l -0.977,15.945" /><path
         id="path68"
         style="fill:#ffffff;fill-opacity:1;fill-rule:nonzero;stroke:none"
         d="m 337.527,251.23 c -16.156,0 -23.047,-4.472 -23.047,-14.953 0,-7.339 4.125,-12.089 10.5,-12.089 9.258,0 13.567,7.289 13.567,22.929 v 4.113 z M 324.98,223.164 c -6.894,0 -11.527,5.274 -11.527,13.113 0,11.203 7.199,15.981 24.074,15.981 h 1.536 c 0.285,0 0.511,-0.227 0.511,-0.512 v -4.629 c 0,-16.347 -4.636,-23.953 -14.594,-23.953 z m 10.594,38.594 c -25.769,0 -37.261,-8.445 -37.261,-27.395 0,-15.468 10.539,-23.57 20.949,-23.57 10.343,0 15.558,5.867 19.644,12.203 0.098,0.149 0.258,0.234 0.434,0.234 h 0.277 c 0.285,0 0.516,-0.222 0.516,-0.503 0,-1.438 -0.051,-2.805 -0.106,-4.114 -0.082,-2.226 -0.16,-4.328 0.012,-6.543 h 14.566 c -0.187,2 -0.101,4.668 -0.011,7.715 0.058,2.012 0.125,4.094 0.125,6.289 v 35.879 c 0,19.512 -4.582,32.5 -26.949,32.5 -10.778,0 -17.625,-3.457 -22.196,-5.848 l 0.895,-14.55 c 3.551,3.035 10.828,7.39 19.211,7.39 8.832,0 13.894,-5.879 13.894,-16.14 v -3.032 c 0,-0.281 -0.226,-0.515 -0.511,-0.515 z m -16.312,-51.992 c -10.922,0 -21.981,8.449 -21.981,24.597 0,25.2 20.461,28.418 38.293,28.418 h 2.973 v 2.524 c 0,4.539 -1.25,15.117 -12.867,15.117 -8.754,0 -16.25,-4.934 -19.301,-7.832 -0.149,-0.149 -0.363,-0.18 -0.551,-0.11 -0.183,0.071 -0.308,0.247 -0.32,0.45 l -0.977,15.949 c -0.015,0.191 0.098,0.391 0.274,0.484 4.66,2.434 11.699,6.117 22.965,6.117 23.222,0 27.976,-13.402 27.976,-33.527 v -35.879 c 0,-2.207 -0.062,-4.297 -0.125,-6.316 -0.101,-3.313 -0.187,-6.164 0.067,-8.125 0.019,-0.156 -0.024,-0.305 -0.122,-0.41 -0.097,-0.11 -0.238,-0.176 -0.386,-0.176 h -15.614 c -0.265,0 -0.488,0.203 -0.511,0.469 -0.231,2.449 -0.145,4.722 -0.051,7.136 0.035,0.899 0.066,1.817 0.09,2.766 -3.996,-5.93 -9.563,-11.652 -19.832,-11.652" /><path
         id="path70"
         style="fill:#ffffff;fill-opacity:1;fill-rule:nonzero;stroke:none"
         d="m 402.219,226.855 c 9.617,0 15.015,8.625 15.015,25.047 0,18.977 -4.699,28.547 -14.738,28.547 -10.183,0 -13.664,-11.562 -13.664,-27.031 0,-15.957 3.902,-26.563 13.387,-26.563 z m -30.676,52.801 c 0,5.903 -0.043,10.41 -0.043,13.891 l 15.133,-0.039 c 0.14,-2.57 0.055,-2.883 0.055,-8.457 h 0.417 c 2.79,7.012 8.973,9.91 20.125,9.91 17.848,0 26.266,-19.453 26.266,-42.258 0,-26.797 -10.371,-40.359 -25.84,-40.359 -10.32,0 -16.039,1.551 -18.547,7.929 h -0.277 V 181.23 h -17.289 v 98.426" /><path
         id="path72"
         style="fill:#ffffff;fill-opacity:1;fill-rule:nonzero;stroke:none"
         d="m 402.496,279.941 c -8.726,0 -13.148,-8.925 -13.148,-26.523 0,-11.887 2.23,-26.047 12.871,-26.047 9.351,0 14.504,8.715 14.504,24.531 0,18.868 -4.653,28.039 -14.227,28.039 z m -0.277,-53.601 c -9.094,0 -13.903,9.363 -13.903,27.078 0,18.281 4.77,27.551 14.18,27.551 10.27,0 15.258,-9.504 15.258,-29.067 0,-16.48 -5.52,-25.562 -15.535,-25.562 z m -30.156,-44.602 h 16.253 v 38.535 c 0,0.286 0.231,0.52 0.516,0.52 h 0.277 c 0.211,0 0.403,-0.141 0.481,-0.332 2.207,-5.617 6.933,-7.609 18.066,-7.609 16.094,0 25.328,14.519 25.328,39.851 0,19.262 -6.746,41.75 -25.754,41.75 -11.097,0 -16.976,-2.871 -19.648,-9.598 -0.078,-0.199 -0.269,-0.324 -0.477,-0.324 h -0.417 c -0.286,0 -0.516,0.235 -0.516,0.52 0,1.902 0.012,3.191 0.019,4.179 0.008,1.676 0.02,2.418 -0.046,3.766 l -14.133,0.039 c 0,-1.387 0.008,-2.918 0.019,-4.629 0.012,-2.515 0.032,-5.41 0.032,-8.75 z m 16.769,-1.023 h -17.289 c -0.281,0 -0.512,0.23 -0.512,0.515 v 98.426 c 0,3.332 -0.015,6.235 -0.031,8.742 -0.008,1.934 -0.02,3.633 -0.02,5.149 0,0.137 0.055,0.269 0.153,0.371 0.097,0.086 0.23,0.145 0.367,0.145 v 0 l 15.137,-0.04 c 0.273,0 0.496,-0.214 0.511,-0.488 0.086,-1.711 0.086,-2.422 0.071,-4.316 0,-0.696 -0.012,-1.551 -0.016,-2.676 3.07,6.25 9.164,8.937 20.027,8.937 16.27,0 26.778,-16.789 26.778,-42.777 0,-25.984 -9.606,-40.879 -26.352,-40.879 -9.199,0 -15.285,1.145 -18.308,6.723 V 181.23 c 0,-0.285 -0.231,-0.515 -0.516,-0.515" /><path
         id="path74"
         style="fill:#ffffff;fill-opacity:1;fill-rule:nonzero;stroke:none"
         d="m 517.652,233.586 c 2.907,-1.242 10.313,-6.301 18.735,-6.301 6.539,0 11.621,1.707 11.621,7.903 0,3.093 -1.449,6.035 -7.988,10.066 l -10.493,6.699 c -7.554,4.805 -12.746,8.289 -12.746,19.375 0,12.793 10.02,23.633 25.852,23.633 9.59,0 16.992,-2.625 18.738,-3.25 l -1.019,-14.863 c -4.5,1.851 -9.293,3.562 -15.832,3.562 -7.258,0 -10.309,-2.949 -10.309,-7.742 0,-4.34 2.184,-6.02 7.41,-9.582 l 12.418,-5.938 c 9.77,-5.722 12.426,-13.679 12.426,-20.878 0,-14.715 -10.59,-24.571 -26.856,-24.571 -9.296,0 -19.05,3.352 -22.828,4.903 l 0.871,16.984" /><path
         id="path76"
         style="fill:#ffffff;fill-opacity:1;fill-rule:nonzero;stroke:none"
         d="m 517.313,216.941 c 2.628,-1.05 12.523,-4.734 22.296,-4.734 16,0 26.344,9.441 26.344,24.063 0,8.828 -4.098,15.703 -12.18,20.441 l -12.371,5.906 c -5.367,3.653 -7.707,5.442 -7.707,10.051 0,3.758 1.879,8.25 10.825,8.25 6.414,0 11.128,-1.602 15.367,-3.328 l 0.941,13.765 c -7.348,2.551 -13.933,3.098 -18.195,3.098 -14.684,0 -25.336,-9.726 -25.336,-23.125 0,-10.996 5.242,-14.324 12.508,-18.933 l 10.492,-6.711 c 5.84,-3.594 8.223,-6.641 8.223,-10.496 0,-5.668 -3.969,-8.411 -12.133,-8.411 -6.824,0 -12.981,3.243 -16.657,5.188 -0.593,0.308 -1.136,0.594 -1.605,0.828 z m 22.296,-5.757 c -10.453,0 -21.011,4.109 -23.023,4.937 -0.199,0.09 -0.324,0.285 -0.316,0.5 l 0.871,16.984 c 0.007,0.165 0.093,0.321 0.238,0.411 0.141,0.086 0.316,0.105 0.473,0.039 0.617,-0.266 1.425,-0.688 2.359,-1.184 3.594,-1.894 9.602,-5.066 16.176,-5.066 7.578,0 11.101,2.34 11.101,7.383 0,2.91 -1.312,5.664 -7.738,9.625 l -10.504,6.71 c -7.25,4.61 -12.976,8.25 -12.976,19.805 0,13.992 11.085,24.152 26.363,24.152 4.414,0 11.273,-0.57 18.91,-3.285 0.215,-0.078 0.355,-0.293 0.344,-0.515 l -1.024,-14.871 c -0.008,-0.168 -0.101,-0.317 -0.238,-0.403 -0.141,-0.09 -0.316,-0.097 -0.469,-0.039 -4.316,1.785 -9.078,3.528 -15.636,3.528 -6.59,0 -9.793,-2.368 -9.793,-7.227 0,-4.094 2.07,-5.676 7.187,-9.16 l 12.344,-5.891 c 8.453,-4.949 12.719,-12.129 12.719,-21.347 0,-15 -10.997,-25.086 -27.368,-25.086" /><path
         id="path78"
         style="fill:#ffffff;fill-opacity:1;fill-rule:nonzero;stroke:none"
         d="m 476.5,226.855 c 9.617,0 15.023,8.625 15.023,25.047 0,18.977 -4.707,28.547 -14.746,28.547 -10.175,0 -13.664,-11.562 -13.664,-27.031 0,-15.957 3.903,-26.563 13.387,-26.563 z m -30.676,52.801 c 0,5.903 -0.043,10.41 -0.043,13.891 l 15.137,-0.039 c 0.137,-2.57 0.055,-2.883 0.055,-8.457 h 0.414 c 2.793,7.012 8.98,9.91 20.129,9.91 17.843,0 26.261,-19.453 26.261,-42.258 0,-26.797 -10.367,-40.359 -25.839,-40.359 -10.317,0 -16.036,1.551 -18.543,7.929 h -0.282 V 181.23 h -17.289 v 98.426" /><path
         id="path80"
         style="fill:#ffffff;fill-opacity:1;fill-rule:nonzero;stroke:none"
         d="m 476.777,279.941 c -8.726,0 -13.144,-8.925 -13.144,-26.523 0,-11.887 2.226,-26.047 12.867,-26.047 9.355,0 14.508,8.715 14.508,24.531 0,18.868 -4.656,28.039 -14.231,28.039 z M 476.5,226.34 c -9.094,0 -13.902,9.363 -13.902,27.078 0,18.281 4.769,27.551 14.179,27.551 10.27,0 15.258,-9.504 15.258,-29.067 0,-16.48 -5.515,-25.562 -15.535,-25.562 z m -30.156,-44.602 h 16.254 v 38.535 c 0,0.286 0.234,0.52 0.515,0.52 h 0.282 c 0.21,0 0.398,-0.141 0.476,-0.332 2.207,-5.617 6.942,-7.609 18.067,-7.609 16.093,0 25.328,14.519 25.328,39.851 0,19.262 -6.743,41.75 -25.75,41.75 -11.102,0 -16.973,-2.871 -19.653,-9.598 -0.078,-0.199 -0.261,-0.324 -0.476,-0.324 h -0.414 c -0.285,0 -0.512,0.235 -0.512,0.52 0,1.902 0.008,3.191 0.012,4.179 0.015,1.676 0.019,2.418 -0.043,3.766 l -14.129,0.039 c 0,-1.387 0.008,-2.918 0.012,-4.629 0.015,-2.515 0.031,-5.41 0.031,-8.75 z m 16.769,-1.023 h -17.289 c -0.281,0 -0.511,0.23 -0.511,0.515 v 98.426 c 0,3.332 -0.016,6.235 -0.032,8.742 -0.008,1.934 -0.011,3.633 -0.011,5.149 0,0.137 0.05,0.269 0.152,0.371 0.09,0.086 0.223,0.145 0.359,0.145 v 0 l 15.137,-0.04 c 0.273,0 0.5,-0.214 0.512,-0.488 0.093,-1.711 0.09,-2.422 0.074,-4.316 -0.004,-0.696 -0.016,-1.551 -0.016,-2.676 3.075,6.25 9.164,8.937 20.028,8.937 16.265,0 26.781,-16.789 26.781,-42.777 0,-25.984 -9.609,-40.879 -26.359,-40.879 -9.2,0 -15.282,1.145 -18.305,6.723 V 181.23 c 0,-0.285 -0.235,-0.515 -0.52,-0.515" /><path
         id="path82"
         style="fill:#f68c14;fill-opacity:1;fill-rule:evenodd;stroke:none"
         d="M 1348.51,127.996 C 1289.46,84.4336 1203.86,61.25 1130.15,61.25 c -103.3,0 -196.326,38.1836 -266.732,101.746 -5.523,4.992 -0.59,11.817 6.047,7.949 75.957,-44.199 169.885,-70.808 266.885,-70.808 65.45,0 137.38,13.586 203.57,41.64 9.98,4.239 18.35,-6.574 8.59,-13.781" /><path
         id="path84"
         style="fill:#f68c14;fill-opacity:1;fill-rule:evenodd;stroke:none"
         d="m 1373.08,156.047 c -7.56,9.676 -49.93,4.59 -68.96,2.305 -5.77,-0.696 -6.66,4.343 -1.46,7.996 33.8,23.73 89.18,16.882 95.61,8.933 6.49,-8.015 -1.7,-63.543 -33.38,-90.0388 -4.86,-4.082 -9.5,-1.9024 -7.34,3.4883 7.13,17.7855 23.08,57.6485 15.53,67.3165" /><path
         id="path86"
         style="fill:#ffffff;fill-opacity:1;fill-rule:evenodd;stroke:none"
         d="m 1305.47,334.039 v 23.07 c 0.01,3.512 2.66,5.844 5.84,5.84 l 103.38,0.016 c 3.31,0 5.96,-2.414 5.96,-5.832 v -19.785 c -0.02,-3.321 -2.82,-7.657 -7.79,-14.512 l -53.54,-76.469 c 19.87,0.469 40.9,-2.512 58.97,-12.656 4.06,-2.285 5.16,-5.684 5.47,-9.004 v -24.609 c 0,-3.399 -3.7,-7.325 -7.6,-5.285 -31.82,16.671 -74.05,18.507 -109.24,-0.184 -3.59,-1.926 -7.35,1.941 -7.35,5.332 v 23.406 c 0,3.742 0.07,10.141 3.84,15.844 l 62.05,89.012 -54.02,0.007 c -3.31,0 -5.95,2.368 -5.97,5.809" /><path
         id="path88"
         style="fill:#ffffff;fill-opacity:1;fill-rule:evenodd;stroke:none"
         d="m 928.352,189.973 h -31.45 c -2.996,0.195 -5.386,2.437 -5.625,5.308 l 0.024,161.418 c 0,3.246 2.715,5.821 6.062,5.821 l 29.285,0.007 c 3.071,-0.16 5.536,-2.472 5.731,-5.418 v -21.074 h 0.586 c 7.637,20.379 22.015,29.895 41.39,29.895 19.668,0 32.005,-9.516 40.815,-29.895 7.63,20.379 24.95,29.895 43.45,29.895 13.22,0 27.6,-5.442 36.4,-17.668 9.98,-13.578 7.93,-33.289 7.93,-50.617 l -0.02,-101.864 c 0,-3.23 -2.72,-5.808 -6.06,-5.808 h -31.42 c -3.16,0.195 -5.66,2.703 -5.66,5.808 v 85.559 c 0,6.805 0.59,23.789 -0.88,30.238 -2.35,10.871 -9.39,13.926 -18.49,13.926 -7.64,0 -15.57,-5.098 -18.79,-13.246 -3.23,-8.164 -2.94,-21.731 -2.94,-30.918 v -85.559 c 0,-3.23 -2.71,-5.808 -6.06,-5.808 h -31.419 c -3.152,0.195 -5.652,2.703 -5.652,5.808 l -0.024,85.559 c 0,18.008 2.934,44.512 -19.379,44.512 -22.609,0 -21.722,-25.825 -21.722,-44.512 l -0.016,-85.559 c 0,-3.23 -2.719,-5.808 -6.066,-5.808" /><path
         id="path90"
         style="fill:#ffffff;fill-opacity:1;fill-rule:evenodd;stroke:none"
         d="m 1509.94,332.98 c -23.19,0 -24.66,-31.593 -24.66,-51.3 0,-19.7 -0.29,-61.809 24.37,-61.809 24.37,0 25.55,33.957 25.55,54.68 0,13.594 -0.59,29.89 -4.7,42.804 -3.53,11.204 -10.58,15.625 -20.56,15.625 z m -0.29,32.95 c 46.69,0 71.93,-40.078 71.93,-91.035 0,-49.258 -27.88,-88.332 -71.93,-88.332 -45.8,0 -70.75,40.097 -70.75,90.019 0,50.281 25.24,89.348 70.75,89.348" /><path
         id="path92"
         style="fill:#ffffff;fill-opacity:1;fill-rule:evenodd;stroke:none"
         d="m 1642.12,189.973 h -31.34 c -3.15,0.195 -5.64,2.703 -5.64,5.808 l -0.05,161.469 c 0.27,2.961 2.87,5.27 6.04,5.27 l 29.18,0.007 c 2.74,-0.14 5.01,-2.015 5.59,-4.519 V 333.32 h 0.59 c 8.8,22.078 21.14,32.61 42.86,32.61 14.09,0 27.89,-5.102 36.69,-19.032 8.23,-12.914 8.23,-34.64 8.23,-50.265 V 195.059 c -0.35,-2.871 -2.92,-5.086 -6.02,-5.086 h -31.53 c -2.92,0.195 -5.26,2.324 -5.62,5.086 v 87.636 c 0,17.664 2.07,43.481 -19.66,43.481 -7.64,0 -14.69,-5.09 -18.2,-12.906 -4.4,-9.84 -5,-19.696 -5,-30.575 v -86.914 c -0.05,-3.23 -2.77,-5.808 -6.12,-5.808" /><path
         id="path94"
         style="fill:#ffffff;fill-opacity:1;fill-rule:evenodd;stroke:none"
         d="m 1254.77,190.383 c -2.09,-1.875 -5.09,-1.992 -7.44,-0.742 -10.45,8.687 -12.32,12.695 -18.03,20.957 -17.27,-17.59 -29.5,-22.864 -51.86,-22.864 -26.47,0 -47.08,16.36 -47.08,49.036 0,25.515 13.83,42.886 33.55,51.394 17.07,7.488 40.9,8.848 59.15,10.906 v 4.075 c 0,7.492 0.57,16.335 -3.83,22.8 -3.83,5.801 -11.18,8.176 -17.66,8.176 -11.99,0 -22.65,-6.141 -25.28,-18.891 -0.55,-2.824 -2.61,-5.625 -5.46,-5.777 l -30.49,3.301 c -2.58,0.582 -5.43,2.652 -4.69,6.578 7.01,36.981 40.4,48.156 70.34,48.156 15.29,0 35.3,-4.086 47.36,-15.668 15.31,-14.3 13.83,-33.363 13.83,-54.125 v -49.004 c 0,-14.726 6.13,-21.203 11.87,-29.16 2.01,-2.851 2.46,-6.25 -0.1,-8.34 -6.42,-5.371 -17.84,-15.3 -24.12,-20.886 z m -31.71,76.68 c 0,-12.258 0.29,-22.461 -5.89,-33.372 -5.01,-8.847 -12.95,-14.296 -21.78,-14.296 -12.06,0 -19.12,9.199 -19.12,22.812 0,26.797 24.02,31.66 46.79,31.66 v -6.804" /><path
         id="path96"
         style="fill:#ffffff;fill-opacity:1;fill-rule:evenodd;stroke:none"
         d="m 842.449,190.383 c -2.078,-1.875 -5.086,-1.992 -7.426,-0.742 -10.449,8.687 -12.324,12.695 -18.035,20.957 -17.261,-17.59 -29.492,-22.864 -51.847,-22.864 -26.489,0 -47.075,16.36 -47.075,49.036 0,25.515 13.829,42.886 33.536,51.394 17.066,7.488 40.898,8.848 59.14,10.906 v 4.075 c 0,7.492 0.59,16.335 -3.816,22.8 -3.836,5.801 -11.188,8.176 -17.664,8.176 -11.992,0 -22.664,-6.141 -25.274,-18.891 -0.55,-2.824 -2.609,-5.625 -5.468,-5.777 l -30.477,3.301 c -2.582,0.582 -5.445,2.652 -4.699,6.578 7.004,36.981 40.402,48.156 70.332,48.156 15.301,0 35.308,-4.086 47.379,-15.668 15.293,-14.3 13.816,-33.363 13.816,-54.125 v -49.004 c 0,-14.726 6.129,-21.203 11.875,-29.16 2.008,-2.851 2.457,-6.25 -0.105,-8.34 -6.422,-5.371 -17.836,-15.3 -24.121,-20.886 z m -31.707,76.68 c 0,-12.258 0.293,-22.461 -5.887,-33.372 -4.992,-8.847 -12.941,-14.296 -21.773,-14.296 -12.059,0 -19.129,9.199 -19.129,22.812 0,26.797 24.035,31.66 46.789,31.66 v -6.804" /><path
         id="path98"
         style="fill:#ffffff;fill-opacity:1;fill-rule:nonzero;stroke:none"
         d="m 744.922,477.129 h 32.344 l -15.903,44.496 h -0.269 z m 9.492,55.992 h 14.027 l 37.286,-95.418 h -14.028 l -10.426,28.735 h -40.359 l -10.687,-28.735 h -13.098 l 37.285,95.418" /><path
         id="path100"
         style="fill:#ffffff;fill-opacity:1;fill-rule:nonzero;stroke:none"
         d="m 834.32,437.703 h -12.156 l -25.66,69.09 h 12.695 l 19.375,-57.594 h 0.27 l 18.844,57.594 h 11.89 l -25.258,-69.09" /><path
         id="path102"
         style="fill:#ffffff;fill-opacity:1;fill-rule:nonzero;stroke:none"
         d="m 906.086,473.383 c -4.41,-3.207 -12.965,-3.34 -20.582,-4.676 -7.484,-1.336 -13.899,-4.012 -13.899,-12.43 0,-7.484 6.415,-10.156 13.368,-10.156 14.965,0 21.113,9.359 21.113,15.637 z m 18.441,-35.41 c -2.007,-1.203 -4.547,-1.875 -8.156,-1.875 -5.879,0 -9.617,3.211 -9.617,10.695 -6.285,-7.352 -14.703,-10.695 -24.32,-10.695 -12.567,0 -22.856,5.617 -22.856,19.382 0,15.633 11.629,18.973 23.387,21.243 12.562,2.41 23.25,1.605 23.25,10.156 0,9.894 -8.149,11.496 -15.363,11.496 -9.625,0 -16.707,-2.941 -17.243,-13.098 H 862.25 c 0.672,17.106 13.898,23.121 29.27,23.121 12.425,0 25.921,-2.808 25.921,-18.972 v -35.555 c 0,-5.34 0,-7.75 3.61,-7.75 0.937,0 2.008,0.133 3.476,0.672 v -8.82" /><path
         id="path104"
         style="fill:#ffffff;fill-opacity:1;fill-rule:nonzero;stroke:none"
         d="m 932.402,506.793 h 11.364 v -69.09 h -11.364 z m 11.364,12.43 h -11.364 v 13.898 h 11.364 v -13.898" /><path
         id="path106"
         style="fill:#ffffff;fill-opacity:1;fill-rule:nonzero;stroke:none"
         d="m 959.395,533.121 h 11.359 v -95.418 h -11.359 v 95.418" /><path
         id="path108"
         style="fill:#ffffff;fill-opacity:1;fill-rule:nonzero;stroke:none"
         d="m 1027.81,473.383 c -4.4,-3.207 -12.96,-3.34 -20.57,-4.676 -7.482,-1.336 -13.9,-4.012 -13.9,-12.43 0,-7.484 6.418,-10.156 13.36,-10.156 14.97,0 21.11,9.359 21.11,15.637 z m 18.45,-35.41 c -2.01,-1.203 -4.55,-1.875 -8.15,-1.875 -5.88,0 -9.62,3.211 -9.62,10.695 -6.28,-7.352 -14.71,-10.695 -24.33,-10.695 -12.558,0 -22.851,5.617 -22.851,19.382 0,15.633 11.629,18.973 23.391,21.243 12.56,2.41 23.25,1.605 23.25,10.156 0,9.894 -8.16,11.496 -15.37,11.496 -9.62,0 -16.701,-2.941 -17.236,-13.098 h -11.36 c 0.664,17.106 13.899,23.121 29.266,23.121 12.42,0 25.92,-2.808 25.92,-18.972 v -35.555 c 0,-5.34 0,-7.75 3.61,-7.75 0.94,0 2.01,0.133 3.48,0.672 v -8.82" /><path
         id="path110"
         style="fill:#ffffff;fill-opacity:1;fill-rule:nonzero;stroke:none"
         d="m 1085.95,498.375 c -15.24,0 -21.12,-13.098 -21.12,-26.062 0,-13.625 6.15,-26.192 21.78,-26.192 15.5,0 20.71,13.234 20.71,26.731 0,12.964 -6.68,25.523 -21.37,25.523 z m -32.08,34.746 h 11.35 v -35.68 h 0.28 c 3.74,7.618 12.56,10.957 22.05,10.957 21.25,0 31.81,-16.839 31.81,-36.347 0,-19.512 -10.43,-35.953 -31.55,-35.953 -7.08,0 -17.23,2.675 -22.31,10.828 h -0.28 v -9.223 h -11.35 v 95.418" /><path
         id="path112"
         style="fill:#ffffff;fill-opacity:1;fill-rule:nonzero;stroke:none"
         d="m 1128.04,533.121 h 11.35 v -95.418 h -11.35 v 95.418" /><path
         id="path114"
         style="fill:#ffffff;fill-opacity:1;fill-rule:nonzero;stroke:none"
         d="m 1201.66,478.863 c -0.53,10.825 -8.68,19.512 -19.9,19.512 -11.9,0 -18.99,-8.949 -19.79,-19.512 z m 10.97,-19.246 c -3.08,-15.23 -14.04,-23.519 -29.54,-23.519 -22.05,0 -32.47,15.234 -33.14,36.351 0,20.715 13.62,35.949 32.47,35.949 24.46,0 31.95,-22.851 31.27,-39.554 h -51.72 c -0.4,-12.028 6.42,-22.723 21.52,-22.723 9.35,0 15.9,4.547 17.91,13.496 h 11.23" /><path
         id="path116"
         style="fill:#ffffff;fill-opacity:1;fill-rule:nonzero;stroke:none"
         d="m 1305.36,473.383 c -4.41,-3.207 -12.97,-3.34 -20.58,-4.676 -7.49,-1.336 -13.9,-4.012 -13.9,-12.43 0,-7.484 6.41,-10.156 13.37,-10.156 14.96,0 21.11,9.359 21.11,15.637 z m 18.44,-35.41 c -2,-1.203 -4.54,-1.875 -8.15,-1.875 -5.87,0 -9.62,3.211 -9.62,10.695 -6.28,-7.352 -14.7,-10.695 -24.32,-10.695 -12.56,0 -22.85,5.617 -22.85,19.382 0,15.633 11.62,18.973 23.38,21.243 12.56,2.41 23.26,1.605 23.26,10.156 0,9.894 -8.16,11.496 -15.37,11.496 -9.62,0 -16.71,-2.941 -17.25,-13.098 h -11.35 c 0.67,17.106 13.89,23.121 29.26,23.121 12.43,0 25.93,-2.808 25.93,-18.972 v -35.555 c 0,-5.34 0,-7.75 3.6,-7.75 0.94,0 2.01,0.133 3.48,0.672 v -8.82" /><path
         id="path118"
         style="fill:#ffffff;fill-opacity:1;fill-rule:nonzero;stroke:none"
         d="m 1350.13,506.793 h 13.76 v -10.02 h -13.76 v -42.902 c 0,-5.211 1.46,-6.144 8.55,-6.144 h 5.21 v -10.024 h -8.68 c -11.76,0 -16.44,2.402 -16.44,15.102 v 43.968 H 1327 v 10.02 h 11.77 v 20.719 h 11.36 v -20.719" /></g></g></svg>