<?xml version="1.0" standalone="yes"?>
<svg xmlns="http://www.w3.org/2000/svg" width="512" height="512">
<path style="fill:#ddd; stroke:none;" d="M208 224L153 224C145.028 224 136.08 222.603 130.854 230.043C120.192 245.224 139.734 260.746 148.576 271C173.45 299.847 198.677 328.409 223.845 357C232.262 366.562 241.889 383.992 256 383.992C270.111 383.992 279.738 366.562 288.155 357C313.323 328.409 338.55 299.847 363.424 271C372.266 260.746 391.808 245.224 381.146 230.043C375.92 222.603 366.972 224 359 224L304 224L304 76L304 32C304 25.1905 305.403 16.5461 303.347 10C301.478 4.04898 296.054 0.392792 290 0.0432129C271.465 -1.0271 252.568 0 234 0C226.178 0 217.075 -1.53314 211.394 5.10495C207.092 10.133 208 16.8466 208 23L208 63L208 224M16 352L16 459C16 474.365 13.054 491.807 25.3002 503.535C34.9939 512.819 46.5697 512 59 512L121 512L385 512L452 512C465.097 512 477.647 513.026 487.535 502.7C499.03 490.697 496 473.222 496 458L496 352L432 352L432 448L80 448L80 352L16 352z"/>
</svg>
